<?xml version="1.0" encoding="UTF-8" standalone="no"?><!DOCTYPE svg PUBLIC "-//W3C//DTD SVG 1.1//EN" "http://www.w3.org/Graphics/SVG/1.1/DTD/svg11.dtd"><svg width="100%" height="100%" viewBox="0 0 312 85" version="1.1" xmlns="http://www.w3.org/2000/svg" xmlns:xlink="http://www.w3.org/1999/xlink" xml:space="preserve" style="fill-rule:evenodd;clip-rule:evenodd;stroke-linejoin:round;stroke-miterlimit:1.41421;"><g transform="matrix(1,0,0,1,-227.664,-383.16)"><text x="304.545px" y="436.256px" style="font-family:'BookAntiqua', 'Book Antiqua', serif;font-size:48px;fill:#0c2b40;">g</text><text x="331.24px" y="436.256px" style="font-family:'BookAntiqua', 'Book Antiqua', serif;font-size:24px;fill:#0c2b40;">raphics</text><text x="414.924px" y="436.256px" style="font-family:'BookAntiqua', 'Book Antiqua', serif;font-size:48px;fill:#0c2b40;">I</text><text x="431.096px" y="436.256px" style="font-family:'BookAntiqua', 'Book Antiqua', serif;font-size:24px;fill:#0c2b40;">nnovation</text></g><path d="M36.644,27.463l-14.859,0c-0.939,0.457 0,0.954 0,0.954l3.442,0c1.274,0 1.109,0.773 1.109,0.773l0,15.234c-10.068,-1.026 -17.91,-9.28 -17.91,-19.301c0,-10.721 8.968,-19.41 20.035,-19.41c11.062,0 20.031,8.689 20.031,19.41c0,9.694 -7.337,17.73 -16.921,19.174l0,-13.932c0,-1.313 0.474,-1.857 0.474,-1.857l4.599,0c0.502,-0.588 0,-1.045 0,-1.045m17.1,37.388c0,0 -1.371,0.602 -0.927,1.963c0,0 2.866,6.38 0.04,9.524c0,0 -4.4,6.004 -13.271,6.635c0,0 -5.877,0.501 -7.599,-1.538l0,-36.419c0,0 26.582,-0.592 24.343,-23.946c0,0 -0.887,-8.798 -10.756,-13.151c0,0 1.609,-4.402 7.984,-3.245c0,0 4.772,1.659 4.994,-2.971c0,0 -0.448,-3.171 -7.377,-0.859c0,0 -4.825,1.316 -6.488,6.893c0,0 -8.553,-3.07 -14.083,-2.993c0,0 -26.316,-2.297 -29.421,19.592c0,0 -1.183,10.219 8.352,15.419c0,0 -13.529,4.292 -8.357,15.902c0,0 2.515,3.991 9.909,5.08l13.826,0l0,-5.199l-10.721,0c0,0 -11.2,-0.272 -10.202,-8.164c0,0 0.444,-4.898 7.43,-6.44c0,0 6.764,3.719 14.824,4.263l0,36.343c0,0 -2.791,3.247 -4.955,-0.878c0,0 -0.719,-1.041 -1.22,0.41c0,0 0.058,3.4 4.769,3.309l12.086,0c0,0 22.437,-0.363 21.624,-16.871c0,0 -0.444,-3.871 -4.804,-2.659" style="fill:#0c2b40;fill-rule:nonzero;"/><path d="M32.895,55.235l0,5.442l11.459,0c0,0 4.731,0.605 6.357,3.568c0,0 1.996,-2.116 5.323,-1.209c0,0 -3.104,-6.652 -12.567,-7.801l-10.572,0Z" style="fill:#0c2b40;fill-rule:nonzero;"/></svg>